<svg width="87" height="87" viewBox="0 0 87 87" fill="none" xmlns="http://www.w3.org/2000/svg">
<g clip-path="url(#clip0_2226_116)">
<path d="M6.49273 64.9756C9.45838 70.1227 16.0352 71.8911 21.1824 68.9254C21.1859 68.9234 21.1893 68.9214 21.1928 68.9193L22.7882 67.9978C25.7999 70.5746 29.2617 72.5729 32.9993 73.8922V75.7316C32.9993 81.672 37.815 86.4877 43.7554 86.4877C49.6958 86.4877 54.5115 81.672 54.5115 75.7316V73.8924C58.2496 72.5709 61.7115 70.5702 64.7225 67.9908L66.3252 68.9158C71.4735 71.886 78.0551 70.1203 81.0253 64.9719C83.9954 59.8235 82.2298 53.242 77.0813 50.2718L75.4894 49.354C76.206 45.4547 76.206 41.4575 75.4894 37.5581L77.0813 36.6403C82.2296 33.6701 83.9954 27.0887 81.0253 21.9402C78.0551 16.7919 71.4737 15.0261 66.3252 17.9963L64.7298 18.9178C61.715 16.3442 58.2509 14.3496 54.5115 13.0344V11.1951C54.5115 5.25467 49.6958 0.438965 43.7554 0.438965C37.815 0.438965 32.9993 5.25467 32.9993 11.1951V13.0344C29.2612 14.3558 25.7992 16.3565 22.7882 18.9359L21.1856 18.0074C16.0371 15.037 9.45569 16.8029 6.4855 21.9512C3.5153 27.0995 5.28098 33.681 10.4295 36.6512L12.0214 37.569C11.3047 41.4683 11.3047 45.4655 12.0214 49.3649L10.4295 50.2827C5.29527 53.2608 3.5353 59.8294 6.49273 64.9756ZM43.7554 29.1219C51.6759 29.1219 58.0968 35.5428 58.0968 43.4634C58.0968 51.3839 51.6759 57.8048 43.7554 57.8048C35.8349 57.8048 29.414 51.3839 29.414 43.4634C29.414 35.5428 35.8349 29.1219 43.7554 29.1219Z" fill="#0B0B0B"/>
</g>
<defs>
<clipPath id="clip0_2226_116">
<rect width="86.0488" height="86.0488" fill="white" transform="translate(0.731689 0.438965)"/>
</clipPath>
</defs>
</svg>
