<svg width="73" height="83" viewBox="0 0 73 83" fill="none" xmlns="http://www.w3.org/2000/svg">
<path d="M36.8292 82.9024C39.5461 82.9024 42.1517 81.8164 44.0728 79.8834C45.9939 77.9504 47.0731 75.3287 47.0731 72.595H26.5853C26.5853 75.3287 27.6646 77.9504 29.5857 79.8834C31.5068 81.8164 34.1124 82.9024 36.8292 82.9024ZM41.9256 6.10737C41.9971 5.39077 41.9185 4.66705 41.6949 3.98288C41.4714 3.29872 41.1078 2.6693 40.6276 2.13521C40.1474 1.60113 39.5613 1.17424 38.9071 0.882076C38.2528 0.589913 37.545 0.438965 36.8292 0.438965C36.1135 0.438965 35.4057 0.589913 34.7514 0.882076C34.0972 1.17424 33.5111 1.60113 33.0309 2.13521C32.5507 2.6693 32.1871 3.29872 31.9636 3.98288C31.74 4.66705 31.6614 5.39077 31.7329 6.10737C25.9437 7.29221 20.7393 10.4538 17.001 15.0567C13.2627 19.6597 11.2202 25.4212 11.2195 31.3656C11.2195 37.0243 8.65851 62.2877 0.975586 67.4413H72.6829C65 62.2877 62.439 37.0243 62.439 31.3656C62.439 18.8937 53.6292 8.48322 41.9256 6.10737Z" fill="black"/>
<path d="M4.56104 25.5366C6.35372 19.561 12.4488 6.89271 22.4879 4.02441" stroke="black" stroke-width="3.58537" stroke-linecap="round"/>
<path d="M69.0975 25.5366C67.3049 19.561 61.2097 6.89271 51.1707 4.02441" stroke="black" stroke-width="3.58537" stroke-linecap="round"/>
</svg>
