<svg width="127" height="127" viewBox="0 0 127 127" fill="none" xmlns="http://www.w3.org/2000/svg">
<path fill-rule="evenodd" clip-rule="evenodd" d="M107.842 10.1643C109.942 8.06404 109.942 4.65885 107.842 2.55859C105.742 0.458334 102.336 0.458334 100.236 2.55859L82.2393 20.5555C76.9315 17.8969 70.9405 16.4006 64.6 16.4006H63.1659C57.7213 16.4006 52.5344 17.5039 47.8165 19.4991L30.8761 2.55862C28.7758 0.458364 25.3706 0.458365 23.2704 2.55862C21.1701 4.65888 21.1701 8.06407 23.2704 10.1643L38.3174 25.2114C33.2554 29.3232 29.2325 34.6647 26.7038 40.7809L0.780519 40.7809L0.780518 55.1223L23.7332 55.1223C23.729 55.3609 23.7268 55.6001 23.7268 55.8397V65.8784H0.780519L0.780518 80.2199H23.7268V87.3909C23.7268 88.5994 23.7812 89.7952 23.8876 90.976H0.780519L0.780518 105.317H28.0271C34.5549 118.088 47.8394 126.83 63.1658 126.83H64.6C79.9264 126.83 93.2109 118.088 99.7388 105.317H126.268V90.976H103.878C103.985 89.7952 104.039 88.5994 104.039 87.3909V80.2199H126.268V65.8784H104.039V55.8397C104.039 55.6001 104.037 55.3609 104.033 55.1223L126.268 55.1223V40.7809L101.062 40.7809C98.8402 35.4068 95.4648 30.6309 91.2445 26.7617L107.842 10.1643Z" fill="#FF7221"/>
<rect x="43.8049" y="49.8638" width="40.1561" height="20.078" fill="#D9D9D9"/>
<rect x="43.8049" y="76.6343" width="40.1561" height="20.078" fill="#D9D9D9"/>
</svg>
