<svg width="180" height="170" viewBox="0 0 180 170" fill="none" xmlns="http://www.w3.org/2000/svg">
<path d="M119.173 7.50179C121.616 1.42905 128.571 -1.57899 134.271 1.6409C148.807 9.8533 160.845 21.9921 168.939 36.7722C178.94 55.0351 182.299 76.2008 178.444 96.6628C174.589 117.125 163.758 135.617 147.797 148.989C131.836 162.361 111.733 169.784 90.9119 169.995C70.091 170.206 49.8411 163.191 33.6125 150.146C17.3838 137.1 6.18064 118.831 1.91176 98.4516C-2.35712 78.0719 0.572447 56.8425 10.2013 38.3807C17.9938 23.4397 29.7839 11.0594 44.1507 2.55408C49.7835 -0.780635 56.7981 2.08585 59.3643 8.10783V8.10783C61.9304 14.1298 59.0485 21.0093 53.5789 24.6055C44.1939 30.7762 36.4732 39.2693 31.2194 49.3427C24.1266 62.942 21.9687 78.5798 25.1132 93.5917C28.2577 108.604 36.5101 122.061 48.4643 131.67C60.4185 141.28 75.3348 146.447 90.6717 146.292C106.009 146.136 120.817 140.668 132.574 130.818C144.331 120.968 152.309 107.347 155.149 92.274C157.989 77.2015 155.514 61.6106 148.147 48.1579C142.69 38.193 134.799 29.8581 125.291 23.8789C119.75 20.3942 116.729 13.5745 119.173 7.50179V7.50179Z" fill="#05FF4B"/>
</svg>
