<svg width="127" height="126" viewBox="0 0 127 126" fill="none" xmlns="http://www.w3.org/2000/svg">
<circle cx="63.5488" cy="63.2561" r="62.7439" fill="#FF7221"/>
<path d="M56.8461 79.0188V78.6386C56.8884 74.6042 57.3108 71.3936 58.1135 69.0068C58.9161 66.6199 60.0567 64.6872 61.5353 63.2087C63.0139 61.7301 64.7881 60.3677 66.8581 59.1215C68.1044 58.3611 69.2238 57.4634 70.2166 56.4284C71.2094 55.3722 71.9909 54.1577 72.5612 52.7847C73.1526 51.4118 73.4483 49.891 73.4483 48.2223C73.4483 46.1523 72.9625 44.3569 71.9909 42.8361C71.0193 41.3153 69.7202 40.143 68.0938 39.3192C66.4674 38.4954 64.6614 38.0835 62.6759 38.0835C60.9439 38.0835 59.2752 38.4426 57.6699 39.1608C56.0646 39.879 54.7233 41.009 53.6461 42.5509C52.5688 44.0929 51.9457 46.1101 51.7767 48.6025H43.7925C43.9614 45.0117 44.8908 41.9384 46.5806 39.3826C48.2915 36.8268 50.5411 34.8729 53.3292 33.5211C56.1385 32.1693 59.2541 31.4934 62.6759 31.4934C66.3934 31.4934 69.6252 32.2326 72.3711 33.7112C75.1381 35.1898 77.2715 37.2175 78.7712 39.7945C80.292 42.3714 81.0524 45.3074 81.0524 48.6025C81.0524 50.926 80.6933 53.0277 79.9752 54.9076C79.2781 56.7874 78.2642 58.4667 76.9335 59.9452C75.6239 61.4238 74.0398 62.7334 72.181 63.874C70.3222 65.0358 68.8331 66.2609 67.7136 67.5493C66.5941 68.8167 65.7809 70.3269 65.274 72.0801C64.767 73.8332 64.4924 76.0194 64.4502 78.6386V79.0188H56.8461ZM60.9016 97.7755C59.3386 97.7755 57.9973 97.2157 56.8778 96.0963C55.7583 94.9768 55.1986 93.6355 55.1986 92.0724C55.1986 90.5094 55.7583 89.1681 56.8778 88.0486C57.9973 86.9291 59.3386 86.3694 60.9016 86.3694C62.4647 86.3694 63.8059 86.9291 64.9254 88.0486C66.0449 89.1681 66.6047 90.5094 66.6047 92.0724C66.6047 93.1074 66.3406 94.0579 65.8126 94.924C65.3056 95.79 64.6192 96.487 63.7531 97.0151C62.9082 97.522 61.9577 97.7755 60.9016 97.7755Z" fill="white"/>
</svg>
