<svg width="150" height="140" viewBox="0 0 150 140" fill="none" xmlns="http://www.w3.org/2000/svg">
<path d="M123.511 58.19L76.7596 57.5767L122.031 11.4582L123.511 58.19Z" fill="#FF7221"/>
<path d="M108.499 44.0139C111.544 41.779 112.228 37.468 109.674 34.6834C103.222 27.6453 95.2252 22.1495 86.2763 18.6503C75.1967 14.3179 63.1136 13.2247 51.4363 15.4982C39.759 17.7716 28.9686 23.3181 20.3235 31.4907C11.6785 39.6633 5.535 50.1253 2.60956 61.6566C-0.315886 73.1879 0.0972599 85.3132 3.80082 96.6187C7.50437 107.924 14.3457 117.944 23.527 125.509C32.7083 133.074 43.8512 137.873 55.6562 139.347C65.1908 140.537 74.84 139.517 83.8677 136.407C87.4394 135.176 88.894 131.061 87.2819 127.644V127.644C85.6698 124.227 81.6009 122.815 77.9934 123.937C71.3464 126.003 64.3094 126.64 57.3505 125.771C48.1195 124.619 39.4062 120.866 32.2269 114.951C25.0475 109.035 19.6979 101.2 16.8018 92.3596C13.9058 83.5193 13.5827 74.0378 15.8703 65.0208C18.1579 56.0038 22.9618 47.823 29.7219 41.4324C36.482 35.0417 44.9196 30.7046 54.0507 28.9269C63.1819 27.1491 72.6303 28.004 81.2942 31.3917C87.8255 33.9456 93.7081 37.8597 98.566 42.845C101.203 45.5507 105.453 46.2489 108.499 44.0139V44.0139Z" fill="#FF7221"/>
</svg>
